<?xml version="1.0" encoding="iso-8859-1"?>
<!-- Generator: Adobe Illustrator 19.0.0, SVG Export Plug-In . SVG Version: 6.00 Build 0)  -->
<svg fill="rgba(0,0,0, 0.5)" version="1.1" id="Capa_1" xmlns="http://www.w3.org/2000/svg" xmlns:xlink="http://www.w3.org/1999/xlink" x="0px" y="0px"
	 viewBox="0 0 350.679 350.679" style="enable-background:new 0 0 350.679 350.679;" xml:space="preserve">
<g id="XMLID_447_">
	<path id="XMLID_448_" d="M108.091,39.456c1.078-9.585-1.961-19.177-8.336-26.316C93.579,6.222,85.126,2.407,75.92,2.397
		c-8.184,0-15.859,3.001-21.774,8.386c-5.91-5.379-13.583-8.38-21.774-8.386c-9.313,0-17.848,3.895-24.033,10.968
		c-6.417,7.337-9.344,17.153-8.03,26.93C3.7,65.521,29.422,85.646,44.453,95.398c2.909,1.887,6.275,2.884,9.734,2.884h0
		c3.42,0,6.748-0.978,9.623-2.827C79.104,85.617,105.191,65.26,108.091,39.456z"/>
	<path id="XMLID_449_" d="M349.2,271.578L233.078,88.095c-1.997-3.155-4.22-6.006-6.607-8.475
		c-11.807-12.205-28.105-18.927-45.894-18.927c-15.41,0-30.273,5.01-42.985,14.488c-0.365,0.272-0.729,0.548-1.091,0.823
		c-15.997,12.2-28.403,27.887-36.372,45.466l-24.074,13.9c-4.26,2.459-6.804,6.864-6.804,11.783s2.543,9.325,6.804,11.785
		l13.916,8.034c-0.318,29.593,11.232,57.898,32.17,78.384c13.341,13.053,28.569,23.322,45.844,30.885v42.039h-28.124v30h144.076v-30
		h-28.124v-26.06c25.376-0.119,49.666-3.085,71.142-5.714c5.661-0.693,11.007-1.348,16.134-1.921l0.108-0.012
		c3.004-0.355,5.607-2.311,6.802-5.112C351.135,276.796,350.834,273.87,349.2,271.578z M163.344,136.358
		c-9.946,0-18.009-8.063-18.009-18.01c0-9.946,8.063-18.009,18.009-18.009s18.009,8.063,18.009,18.009
		C181.354,128.295,173.291,136.358,163.344,136.358z M225.812,318.282h-27.829v-32.109c8.832,2.093,18.103,3.639,27.829,4.644
		V318.282z M280.783,249.207c-23.661,2.644-60.89,9.865-86.372-15.066c-18.003-17.614-16.067-47.959,5.534-64.433
		c0.139-0.106,0.278-0.211,0.418-0.315c10.47-7.808,25.42-7.724,32.771,1.556c6.577,8.303,47.206,78.722,47.672,78.255
		C280.812,249.198,280.791,249.206,280.783,249.207z"/>
</g>
<g>
</g>
<g>
</g>
<g>
</g>
<g>
</g>
<g>
</g>
<g>
</g>
<g>
</g>
<g>
</g>
<g>
</g>
<g>
</g>
<g>
</g>
<g>
</g>
<g>
</g>
<g>
</g>
<g>
</g>
</svg>
