<?xml version="1.0" encoding="iso-8859-1"?>
<!-- Generator: Adobe Illustrator 17.1.0, SVG Export Plug-In . SVG Version: 6.00 Build 0)  -->
<!DOCTYPE svg PUBLIC "-//W3C//DTD SVG 1.1//EN" "http://www.w3.org/Graphics/SVG/1.1/DTD/svg11.dtd">
<svg version="1.1" id="Capa_1" xmlns="http://www.w3.org/2000/svg" xmlns:xlink="http://www.w3.org/1999/xlink" x="0px" y="0px"
	 viewBox="0 0 277.619 277.619" style="enable-background:new 0 0 277.619 277.619;" xml:space="preserve">
<path d="M274.111,235.46l-74.771-74.772l65.868-27.697c5.367-2.258,5.72-5.925,5.623-7.396c-0.098-1.472-0.965-5.06-6.584-6.59
	L179,95.805v-73.2c0-12.131-9.8-21.562-21.931-21.562H22.141C10.01,1.044,0,10.474,0,22.605v132.203
	c0,12.131,10.01,22.235,22.141,22.235h74.393l23.501,86.306c1.611,5.924,4.965,6.506,6.965,6.506v-0.03c1,0,4.957-0.747,7.02-5.652
	l27.703-65.865l74.774,74.762c2.261,2.262,5.278,3.505,8.489,3.505c3.211,0,6.226-1.246,8.486-3.508l20.641-20.638
	C278.788,247.751,278.789,240.138,274.111,235.46z M30,147.044v-116h119v56.594L81.26,69.185c-3.959-1.08-7.635-0.008-9.749,2.761
	c-1.685,2.205-2.132,5.267-1.276,8.41l18.132,66.688H30z"/>
<g>
</g>
<g>
</g>
<g>
</g>
<g>
</g>
<g>
</g>
<g>
</g>
<g>
</g>
<g>
</g>
<g>
</g>
<g>
</g>
<g>
</g>
<g>
</g>
<g>
</g>
<g>
</g>
<g>
</g>
</svg>
