<?xml version="1.0" encoding="iso-8859-1"?>
<!-- Generator: Adobe Illustrator 19.0.0, SVG Export Plug-In . SVG Version: 6.00 Build 0)  -->
<svg fill="rgba(0,0,0, 0.5)" version="1.1" id="Capa_1" xmlns="http://www.w3.org/2000/svg" xmlns:xlink="http://www.w3.org/1999/xlink" x="0px" y="0px"
	 viewBox="0 0 377.171 377.171" style="enable-background:new 0 0 377.171 377.171;" xml:space="preserve">
<g id="XMLID_27_">
	<path id="XMLID_28_" d="M87.301,73.816c1.634,0.987,3.676,0.991,5.314,0.011c9.252-5.536,39.46-25.512,39.46-50.345
		C132.076,10.513,121.563,0,108.594,0c-7.595,0-14.347,3.607-18.639,9.2C85.662,3.607,78.911,0,71.316,0
		C58.347,0,47.833,10.513,47.833,23.482C47.833,48.098,78.058,68.234,87.301,73.816z"/>
	<path id="XMLID_29_" d="M351.982,184.831l-0.18-0.171L194.87,62.663c-1.744-1.562-3.964-2.418-6.285-2.418
		c-2.32,0-4.541,0.856-6.285,2.418L83.69,139.321c1.746-11.606,2.276-29.19-7.71-39.176c-6.993-6.993-18.332-6.993-25.325,0
		c-4.096,4.096-5.791,9.681-5.09,15.012c-5.331-0.702-10.916,0.994-15.012,5.09c-6.993,6.993-6.993,18.332,0,25.325
		c8.651,8.651,23.194,9.351,34.491,8.245l-39.48,30.691l-0.376,0.324c-2.973,2.827-3.898,7.147-2.356,11.007
		c1.481,3.707,4.957,6.102,8.856,6.102h21.146v152.469c0,12.551,10.211,22.762,22.762,22.762h225.977
		c12.551,0,22.762-10.211,22.762-22.762V201.94h21.146c3.899,0,7.375-2.396,8.856-6.103
		C355.881,191.978,354.955,187.658,351.982,184.831z M188.585,341.663c0,0-66.405-35.969-66.405-81.781
		c0-20.446,16.574-37.02,37.02-37.02c11.974,0,22.618,5.686,29.385,14.504c6.767-8.818,17.411-14.504,29.385-14.504
		c20.446,0,37.02,16.574,37.02,37.02C254.99,306.111,188.585,341.663,188.585,341.663z"/>
</g>
<g>
</g>
<g>
</g>
<g>
</g>
<g>
</g>
<g>
</g>
<g>
</g>
<g>
</g>
<g>
</g>
<g>
</g>
<g>
</g>
<g>
</g>
<g>
</g>
<g>
</g>
<g>
</g>
<g>
</g>
</svg>
