<?xml version="1.0" encoding="iso-8859-1"?>
<!-- Generator: Adobe Illustrator 18.0.0, SVG Export Plug-In . SVG Version: 6.00 Build 0)  -->
<!DOCTYPE svg PUBLIC "-//W3C//DTD SVG 1.1//EN" "http://www.w3.org/Graphics/SVG/1.1/DTD/svg11.dtd">
<svg fill="rgba(0,0,0, 0.5)" version="1.1" id="Capa_1" xmlns="http://www.w3.org/2000/svg" xmlns:xlink="http://www.w3.org/1999/xlink" x="0px" y="0px"
	 viewBox="0 0 297 297" style="enable-background:new 0 0 297 297;" xml:space="preserve">
<g>
	<polygon points="158.055,43.587 178.901,1.893 118.099,1.893 138.945,43.587 	"/>
	<polygon points="106.188,10.992 99.445,24.478 99.445,54.839 124.016,46.648 	"/>
	<polygon points="197.555,54.839 197.555,24.478 190.812,10.992 172.984,46.648 	"/>
	<path d="M0.722,88.019l14.817,39.509c1.208,3.223,3.778,5.676,7.053,6.733c3.274,1.054,6.794,0.567,9.66-1.341l5.458-3.639V52.95
		L5,74.756C0.642,77.66-1.116,83.114,0.722,88.019z"/>
	<path d="M292,74.756L259.29,52.95v76.332l5.458,3.639c2.863,1.908,6.384,2.395,9.66,1.341c3.275-1.057,5.846-3.51,7.053-6.732
		l14.817-39.511C298.116,83.114,296.358,77.66,292,74.756z"/>
	<polygon points="135.59,58.309 117.111,64.469 117.111,295.107 179.889,295.107 179.889,64.469 161.41,58.309 	"/>
	<path d="M212.277,65.052c0,2.366-1.138,4.589-3.057,5.972c-1.269,0.915-2.779,1.389-4.305,1.389c-0.781,0-1.566-0.124-2.327-0.378
		l-7.976-2.659v225.73h34.48c8.533,0,15.475-6.942,15.475-15.475V44.178l-32.29-12.916V65.052z"/>
	<path d="M92.085,72.414c-1.526,0-3.036-0.475-4.305-1.389c-1.919-1.383-3.057-3.606-3.057-5.972v-33.79l-32.29,12.916v235.453
		c0,8.533,6.942,15.475,15.475,15.475h34.48V69.377l-7.976,2.659C93.652,72.289,92.865,72.414,92.085,72.414z"/>
</g>
<g>
</g>
<g>
</g>
<g>
</g>
<g>
</g>
<g>
</g>
<g>
</g>
<g>
</g>
<g>
</g>
<g>
</g>
<g>
</g>
<g>
</g>
<g>
</g>
<g>
</g>
<g>
</g>
<g>
</g>
</svg>
