<?xml version="1.0" encoding="iso-8859-1"?>
<!-- Generator: Adobe Illustrator 16.0.0, SVG Export Plug-In . SVG Version: 6.00 Build 0)  -->
<!DOCTYPE svg PUBLIC "-//W3C//DTD SVG 1.1//EN" "http://www.w3.org/Graphics/SVG/1.1/DTD/svg11.dtd">
<svg fill="rgba(0,0,0, 0.5)" version="1.1" id="Capa_1" xmlns="http://www.w3.org/2000/svg" xmlns:xlink="http://www.w3.org/1999/xlink" x="0px" y="0px"
	 width="442.662px" height="442.662px" viewBox="0 0 442.662 442.662" style="enable-background:new 0 0 442.662 442.662;"
	 xml:space="preserve">
<g>
	<g id="Layer_8_37_">
		<path d="M429.388,78.961H13.276C5.951,78.961,0,84.907,0,92.242v278.883c0,7.338,5.957,13.274,13.276,13.274h416.112
			c7.334,0,13.274-5.945,13.274-13.274V92.242C442.662,84.907,436.722,78.961,429.388,78.961z M85.771,331.832
			c0,7.342-5.957,13.274-13.287,13.274H50.9c-7.335,0-13.275-5.943-13.275-13.274v-86.874c0-7.334,5.946-13.27,13.275-13.27h21.584
			c7.336,0,13.287,5.948,13.287,13.27V331.832z M417.92,126.579c0,5.155-4.17,9.341-9.337,9.341h-56.031
			c-5.168,0-9.348-4.186-9.348-9.341v-16.726c0-5.16,4.18-9.346,9.348-9.346h56.031c5.167,0,9.337,4.186,9.337,9.346V126.579z
			 M289.184,352.81c-55.013,0-99.612-44.598-99.612-99.597c0-55.012,44.599-99.604,99.612-99.604
			c54.993,0,99.582,44.591,99.582,99.604C388.774,308.212,344.188,352.81,289.184,352.81z M50.9,128.759
			c-7.335,0-13.275-5.951-13.275-13.281c0-7.335,5.946-13.278,13.275-13.278c7.346,0,13.286,5.942,13.286,13.278
			C64.187,122.813,58.247,128.759,50.9,128.759z M289.184,180.819c-40.656,0-73.601,32.947-73.601,73.582
			c0,40.657,32.944,73.611,73.601,73.611c40.635,0,73.588-32.954,73.588-73.611C362.771,213.761,329.818,180.819,289.184,180.819z
			 M289.184,292.531c-21.067,0-38.129-17.062-38.129-38.13c0-21.045,17.062-38.112,38.129-38.112
			c21.048,0,38.107,17.067,38.107,38.112C327.291,275.468,310.231,292.531,289.184,292.531z M115.647,74.312H37.625V58.263h78.022
			V74.312z"/>
	</g>
</g>
<g>
</g>
<g>
</g>
<g>
</g>
<g>
</g>
<g>
</g>
<g>
</g>
<g>
</g>
<g>
</g>
<g>
</g>
<g>
</g>
<g>
</g>
<g>
</g>
<g>
</g>
<g>
</g>
<g>
</g>
</svg>
